# xmcd CD database file
#
# Track frame offsets:
#	150
#	18395
#	31735
#	44732
#	67490
#	83662
#	99727
#	125605
#	137977
#
# Disc length: 2148 seconds
#
# Revision: 2
# Processed by: cddbd v1.5.2PL0 Copyright (c) Steve Scherf et al.
# Submitted via: CDex 1.51
#
DISCID=82086209
DTITLE=Bo Diddley - The London Bo Diddley Sessions
DYEAR=1900
DGENRE=Rock
TTITLE0=Don't Want No Lyin' Woman
TTITLE1=Bo Diddley
TTITLE2=Going Down
TTITLE3=Make A Hit Record
TTITLE4=Bo-Jam
TTITLE5=Husband-In-Law
TTITLE6=Do The Robot
TTITLE7=Sneakers On A Rooster
TTITLE8=Get Out Of My Life
EXTD=
EXTT0=
EXTT1=
EXTT2=
EXTT3=
EXTT4=
EXTT5=
EXTT6=
EXTT7=
EXTT8=
PLAYORDER=
